name Walk4.mot
datacolumns 19
datarows 12
range 3.98100000 3.99200000
endheader

                time	   L_ground_force_vx	   L_ground_force_vy	   L_ground_force_vz	   L_ground_force_px	   L_ground_force_py	   L_ground_force_pz	   R_ground_force_vx	   R_ground_force_vy	   R_ground_force_vz	   R_ground_force_px	   R_ground_force_py	   R_ground_force_pz	   L_ground_torque_x	   L_ground_torque_y	   L_ground_torque_z	   R_ground_torque_x	   R_ground_torque_y	   R_ground_torque_z	
          3.98100000	          0.00000000	          0.00000000	          0.00000000	          0.00000000	          0.00000000	          0.00000000	         12.82104735	         70.96124405	         -0.29761643	          0.20669981	          0.00000000	          0.09423258	          0.00000000	         -0.00000000	          0.00000000	          0.00000000	         -3.53914779	          0.00000000	
          3.98200000	          0.00000000	          0.00000000	          0.00000000	          0.00000000	          0.00000000	          0.00000000	         11.77067275	         66.07845646	         -0.18903158	          0.20164350	          0.00000000	          0.09163534	          0.00000000	         -0.00000000	          0.00000000	          0.00000000	         -3.33251119	          0.00000000	
          3.98300000	          0.00000000	          0.00000000	          0.00000000	          0.00000000	          0.00000000	          0.00000000	         10.76308112	         61.37421915	         -0.09022813	          0.19641132	          0.00000000	          0.08897419	          0.00000000	         -0.00000000	          0.00000000	          0.00000000	         -3.13123043	          0.00000000	
          3.98400000	          0.00000000	          0.00000000	          0.00000000	          0.00000000	          0.00000000	          0.00000000	          9.79873355	         56.84832692	         -0.00053125	          0.19101110	          0.00000000	          0.08625367	          0.00000000	          0.00000000	          0.00000000	          0.00000000	         -2.93552635	          0.00000000	
          3.98500000	          0.00000000	          0.00000000	          0.00000000	          0.00000000	          0.00000000	          0.00000000	          8.87790487	         52.50027306	          0.08070336	          0.18545234	          0.00000000	          0.08347899	          0.00000000	          0.00000000	          0.00000000	          0.00000000	         -2.74559278	          0.00000000	
          3.98600000	          0.00000000	          0.00000000	          0.00000000	          0.00000000	          0.00000000	          0.00000000	          8.00068276	         48.32927304	          0.15408369	          0.17974634	          0.00000000	          0.08065600	          0.00000000	          0.00000000	          0.00000000	          0.00000000	         -2.56159676	          0.00000000	
          3.98700000	          0.00000000	          0.00000000	          0.00000000	          0.00000000	          0.00000000	          0.00000000	          7.16696787	         44.33428784	          0.22017651	          0.17390632	          0.00000000	          0.07779126	          0.00000000	          0.00000000	          0.00000000	          0.00000000	         -2.38367925	          0.00000000	
          3.98800000	          0.00000000	          0.00000000	          0.00000000	          0.00000000	          0.00000000	          0.00000000	          6.37647531	         40.51404492	          0.27950344	          0.16794748	          0.00000000	          0.07489206	          0.00000000	          0.00000000	          0.00000000	          0.00000000	         -2.21195614	          0.00000000	
          3.98900000	          0.00000000	          0.00000000	          0.00000000	          0.00000000	          0.00000000	          0.00000000	          5.62873841	         36.86705391	          0.33253849	          0.16188722	          0.00000000	          0.07196641	          0.00000000	          0.00000000	          0.00000000	          0.00000000	         -2.04651937	          0.00000000	
          3.99000000	          0.00000000	          0.00000000	          0.00000000	          0.00000000	          0.00000000	          0.00000000	          4.92311607	         33.39161347	          0.37970735	          0.15574513	          0.00000000	          0.06902307	          0.00000000	          0.00000000	          0.00000000	          0.00000000	         -1.88743813	          0.00000000	
          3.99100000	          0.00000000	          0.00000000	          0.00000000	         -0.00000000	          0.00000000	          0.00000000	          4.25880512	         30.08580616	          0.42138932	          0.14954314	          0.00000000	          0.06607157	          0.00000000	          0.00000000	          0.00000000	          0.00000000	         -1.73475973	          0.00000000	
          3.99200000	          0.00000000	          0.00000000	          0.00000000	         -0.00000000	          0.00000000	         -0.00000000	          3.63486080	         26.94747252	          0.45792328	          0.14330528	          0.00000000	          0.06312205	          0.00000000	          0.00000000	          0.00000000	          0.00000000	         -1.58851003	          0.00000000	
